<svg width="14" height="20" viewBox="0 0 14 20" fill="none" xmlns="http://www.w3.org/2000/svg">
<path d="M12.7405 3.06554C11.4064 1.09937 9.31293 0 6.99367 0C4.6539 0 2.53989 1.14165 1.22633 3.12896C-0.0872257 5.11628 -0.354042 7.58985 0.466932 9.76744C0.569554 10.0423 0.713224 10.3171 0.877419 10.592L6.23427 19.556C6.39847 19.8309 6.68581 20 6.99367 20C7.30154 20 7.58888 19.8309 7.75308 19.556L13.1305 10.5285C13.3152 10.2326 13.4383 9.93657 13.5615 9.66173C14.3619 7.48414 14.054 5.01057 12.7405 3.06554ZM6.99367 9.83087C5.26963 9.83087 3.87397 8.39323 3.87397 6.61734C3.87397 4.84144 5.26963 3.40381 6.99367 3.40381C8.71772 3.40381 10.1134 4.84144 10.1134 6.61734C10.1134 8.39323 8.71772 9.83087 6.99367 9.83087Z" fill="#2B579A"/>
</svg>
