<svg width="52" height="62" viewBox="0 0 52 62" fill="none" xmlns="http://www.w3.org/2000/svg">
<path d="M50.4334 10.2233C44.0216 9.824 37.163 6.05 31.8847 0H20.115C14.8373 6.05 7.97874 9.824 1.56691 10.2233C-3.95952 30.8987 5.35463 50.65 25.9998 62C46.645 50.65 55.9592 30.8987 50.4334 10.2233ZM48.9622 27.116C48.392 31.4301 47.0861 35.6153 45.1009 39.4907C41.2637 47.008 34.8218 53.606 26.4679 58.572C26.3264 58.6561 26.1646 58.7006 25.9998 58.7006C25.835 58.7006 25.6733 58.6561 25.5317 58.572C17.1792 53.606 10.7373 47.008 6.90074 39.4907C4.91559 35.6153 3.60969 31.4301 3.03947 27.116C2.45827 22.5251 2.66291 17.8692 3.64467 13.3467C3.68231 13.1693 3.77194 13.0071 3.90219 12.8805C4.03243 12.754 4.19743 12.6689 4.37627 12.636C10.2471 11.564 16.1761 8.15 21.0699 3.02467C21.1555 2.93498 21.2586 2.86357 21.3727 2.81475C21.4869 2.76594 21.6098 2.74073 21.734 2.74067H30.267C30.3912 2.74073 30.5141 2.76594 30.6283 2.81475C30.7424 2.86357 30.8454 2.93498 30.9311 3.02467C35.8249 8.15 41.7539 11.564 47.6247 12.636C47.8035 12.6689 47.9685 12.754 48.0988 12.8805C48.229 13.0071 48.3187 13.1693 48.3563 13.3467C49.3384 17.8692 49.5437 22.5252 48.9622 27.116ZM29.8785 4.568H22.1212C17.1852 9.64 11.2529 13.078 5.31651 14.314C1.97283 31.294 9.47939 46.696 25.9998 56.7207C42.5176 46.696 50.0295 31.294 46.6838 14.314C40.7468 13.078 34.8144 9.64 29.8785 4.568ZM25.9998 41.7773C23.8062 41.7773 21.6619 41.1289 19.838 39.9139C18.0141 38.699 16.5925 36.9722 15.7531 34.9519C14.9136 32.9315 14.694 30.7084 15.122 28.5636C15.5499 26.4188 16.6062 24.4487 18.1573 22.9024C19.7084 21.3561 21.6846 20.3031 23.8361 19.8765C25.9875 19.4498 28.2175 19.6688 30.2442 20.5056C32.2708 21.3425 34.0029 22.7597 35.2216 24.5779C36.4403 26.3962 37.0908 28.5339 37.0908 30.7207C37.0881 33.6523 35.9188 36.463 33.8394 38.536C31.76 40.6089 28.9405 41.7747 25.9998 41.7773ZM25.9998 21.492C24.1687 21.492 22.3788 22.0333 20.8563 23.0475C19.3338 24.0616 18.1472 25.5031 17.4465 27.1896C16.7458 28.8761 16.5625 30.7318 16.9198 32.5221C17.2771 34.3125 18.1589 35.957 19.4537 37.2477C20.7485 38.5384 22.3982 39.4174 24.1941 39.7734C25.99 40.1295 27.8515 39.9466 29.5432 39.2479C31.2348 38.5493 32.6807 37.3662 33.6979 35.8484C34.7151 34.3305 35.2579 32.5461 35.2578 30.7207C35.255 28.2738 34.2786 25.928 32.543 24.1979C30.8074 22.4678 28.4543 21.4946 25.9998 21.492ZM31.8954 27.7533L25.1545 34.4733C24.9834 34.6442 24.7513 34.7406 24.509 34.7414C24.2668 34.7421 24.0341 34.6472 23.8619 34.4773L20.1083 30.778C19.9407 30.6065 19.8473 30.3763 19.8482 30.137C19.8491 29.8976 19.9441 29.6681 20.1129 29.4978C20.2817 29.3275 20.5107 29.2301 20.7508 29.2264C20.9909 29.2227 21.2229 29.313 21.3969 29.478L24.5025 32.5393L30.5994 26.4613C30.6845 26.3765 30.7855 26.3092 30.8967 26.2633C31.0079 26.2174 31.127 26.1938 31.2474 26.1938C31.3677 26.1938 31.4869 26.2174 31.5981 26.2633C31.7093 26.3092 31.8103 26.3765 31.8954 26.4613C31.9805 26.5462 32.048 26.6469 32.094 26.7577C32.1401 26.8686 32.1638 26.9874 32.1638 27.1073C32.1638 27.2273 32.1401 27.3461 32.094 27.4569C32.048 27.5678 31.9805 27.6685 31.8954 27.7533Z" fill="#2B579A"/>
</svg>
