<svg width="52" height="53" viewBox="0 0 52 53" fill="none" xmlns="http://www.w3.org/2000/svg">
<path d="M48.4487 45.1798L38.2195 34.9764C37.7523 34.5064 37.1478 34.1971 36.4933 34.093C35.8388 33.9889 35.1682 34.0955 34.5782 34.3974L29.7466 36.8421C29.0007 37.2211 28.1539 37.3543 27.3276 37.2225C26.5013 37.0908 25.7378 36.7009 25.1467 36.1087L16.8668 27.8031C16.2755 27.2114 15.8862 26.448 15.7545 25.622C15.6228 24.7959 15.7554 23.9493 16.1334 23.2031L18.5846 18.3716C18.8762 17.7842 18.9765 17.1203 18.8715 16.473C18.7665 15.8257 18.4614 15.2275 17.9991 14.7624L9.3397 6.0708C9.04806 5.77844 8.70161 5.54648 8.3202 5.38821C7.93878 5.22994 7.52988 5.14847 7.11693 5.14847C6.70398 5.14847 6.29509 5.22994 5.91367 5.38821C5.53225 5.54648 5.1858 5.77844 4.89417 6.0708C1.75991 9.21572 0 13.4748 0 17.9148C0 22.3549 1.75991 26.6139 4.89417 29.7588L23.2102 48.0813C24.7642 49.6404 26.6106 50.8774 28.6436 51.7215C30.6766 52.5656 32.8562 53 35.0575 53C37.2587 53 39.4383 52.5656 41.4713 51.7215C43.5043 50.8774 45.3507 49.6404 46.9047 48.0813L48.4487 46.5437C48.539 46.4546 48.6106 46.3484 48.6595 46.2313C48.7085 46.1143 48.7336 45.9887 48.7336 45.8618C48.7336 45.7349 48.7085 45.6093 48.6595 45.4922C48.6106 45.3752 48.539 45.269 48.4487 45.1798ZM9.97017 26.0596C9.78923 26.2403 9.54396 26.3418 9.28823 26.3418C9.0325 26.3418 8.78722 26.2403 8.60628 26.0596C6.87075 24.3093 5.73899 22.0508 5.37566 19.6128C5.01234 17.1749 5.43641 14.6846 6.58617 12.5043C6.70646 12.2782 6.91164 12.1092 7.15656 12.0344C7.40148 11.9595 7.66609 11.9851 7.89217 12.1054C8.11825 12.2257 8.28728 12.4309 8.36208 12.6758C8.43689 12.9207 8.41133 13.1853 8.29104 13.4114C7.33516 15.2266 6.9826 17.2991 7.28454 19.3282C7.58648 21.3574 8.5272 23.2375 9.97017 24.6957C10.0604 24.7848 10.1321 24.891 10.181 25.0081C10.2299 25.1252 10.2551 25.2508 10.2551 25.3776C10.2551 25.5045 10.2299 25.6301 10.181 25.7472C10.1321 25.8642 10.0604 25.9704 9.97017 26.0596ZM40.4777 46.3893C38.25 47.5794 35.6927 48.0037 33.2001 47.5968C30.7075 47.1899 28.4179 45.9743 26.6843 44.1376C26.5969 44.0455 26.5284 43.9371 26.4829 43.8186C26.4373 43.7 26.4156 43.5737 26.4189 43.4467C26.4222 43.3198 26.4504 43.1947 26.502 43.0787C26.5536 42.9627 26.6276 42.858 26.7197 42.7705C26.8118 42.6831 26.9202 42.6146 27.0387 42.5691C27.1573 42.5235 27.2836 42.5018 27.4106 42.5051C27.5375 42.5083 27.6626 42.5366 27.7786 42.5882C27.8946 42.6398 27.9994 42.7138 28.0868 42.8059C29.5283 44.3356 31.4332 45.3483 33.5075 45.6879C35.5818 46.0274 37.7101 45.6748 39.5641 44.6845C39.6761 44.6245 39.7987 44.5871 39.9251 44.5745C40.0515 44.562 40.1791 44.5744 40.3007 44.6111C40.4222 44.6479 40.5354 44.7082 40.6336 44.7887C40.7319 44.8691 40.8133 44.9682 40.8733 45.0801C40.9333 45.1921 40.9707 45.3147 40.9832 45.4411C40.9958 45.5675 40.9834 45.6951 40.9466 45.8167C40.9099 45.9382 40.8496 46.0514 40.7691 46.1496C40.6886 46.2479 40.5896 46.3293 40.4777 46.3893ZM40.7929 13.1605C40.5352 13.1599 40.2881 13.0582 40.1045 12.8774C39.9254 12.6956 39.8249 12.4507 39.8249 12.1955C39.8249 11.9402 39.9254 11.6953 40.1045 11.5135L45.0197 6.59835C45.2015 6.41919 45.4464 6.31875 45.7016 6.31875C45.9569 6.31875 46.2018 6.41919 46.3836 6.59835C46.4738 6.68751 46.5455 6.7937 46.5944 6.91076C46.6433 7.02782 46.6685 7.15343 46.6685 7.2803C46.6685 7.40716 46.6433 7.53277 46.5944 7.64983C46.5455 7.76689 46.4738 7.87308 46.3836 7.96224L41.4748 12.8774C41.2929 13.0567 41.0483 13.1582 40.7929 13.1605ZM45.7016 34.0242C45.4459 34.0233 45.2009 33.9216 45.0197 33.7411L40.1045 28.8324C39.9437 28.6467 39.8592 28.4071 39.868 28.1616C39.8767 27.9161 39.9782 27.6831 40.1519 27.5094C40.3256 27.3357 40.5586 27.2343 40.804 27.2255C41.0495 27.2167 41.2892 27.3013 41.4748 27.4621L46.3836 32.3772C46.4738 32.4664 46.5455 32.5726 46.5944 32.6897C46.6433 32.8067 46.6685 32.9323 46.6685 33.0592C46.6685 33.1861 46.6433 33.3117 46.5944 33.4287C46.5455 33.5458 46.4738 33.652 46.3836 33.7411C46.2931 33.8313 46.1857 33.9026 46.0676 33.9512C45.9495 33.9998 45.8229 34.0246 45.6952 34.0242H45.7016ZM24.8315 13.1605C24.5758 13.1596 24.3307 13.0578 24.1495 12.8774L19.2344 7.96224C19.1448 7.87227 19.0739 7.76553 19.0255 7.64813C18.9772 7.53073 18.9525 7.40497 18.9528 7.27802C18.9531 7.15107 18.9784 7.02543 19.0273 6.90826C19.0761 6.79109 19.1476 6.68469 19.2376 6.59513C19.3276 6.50558 19.4343 6.43462 19.5517 6.38632C19.6691 6.33801 19.7949 6.3133 19.9218 6.3136C20.0487 6.3139 20.1744 6.3392 20.2916 6.38806C20.4087 6.43691 20.5151 6.50837 20.6047 6.59835L25.5134 11.5457C25.6037 11.6348 25.6753 11.741 25.7242 11.8581C25.7732 11.9752 25.7983 12.1008 25.7983 12.2276C25.7983 12.3545 25.7732 12.4801 25.7242 12.5972C25.6753 12.7142 25.6037 12.8204 25.5134 12.9096C25.3271 13.0783 25.0827 13.1682 24.8315 13.1605ZM32.809 9.85368C32.553 9.85368 32.3076 9.75201 32.1266 9.57103C31.9456 9.39006 31.844 9.1446 31.844 8.88866V1.94695C31.844 1.69101 31.9456 1.44556 32.1266 1.26458C32.3076 1.0836 32.553 0.981934 32.809 0.981934C33.0649 0.981934 33.3104 1.0836 33.4913 1.26458C33.6723 1.44556 33.774 1.69101 33.774 1.94695V8.88866C33.774 9.1446 33.6723 9.39006 33.4913 9.57103C33.3104 9.75201 33.0649 9.85368 32.809 9.85368ZM51.035 21.138H44.0868C43.8309 21.138 43.5854 21.0363 43.4045 20.8553C43.2235 20.6744 43.1218 20.4289 43.1218 20.173C43.1218 19.917 43.2235 19.6716 43.4045 19.4906C43.5854 19.3096 43.8309 19.2079 44.0868 19.2079H51.035C51.2909 19.2079 51.5364 19.3096 51.7174 19.4906C51.8983 19.6716 52 19.917 52 20.173C52 20.4289 51.8983 20.6744 51.7174 20.8553C51.5364 21.0363 51.2909 21.138 51.035 21.138Z" fill="#2B579A"/>
</svg>
