<svg width="21" height="14" viewBox="0 0 21 14" fill="none" xmlns="http://www.w3.org/2000/svg">
<path fill-rule="evenodd" clip-rule="evenodd" d="M20.5713 0.0686717C20.4851 0.0244058 20.3899 0 20.2907 0H0.720105C0.620877 0 0.525923 0.0246451 0.439752 0.0686717L9.34671 7.31513C9.99335 7.84129 11.0825 7.78841 11.737 7.25603L20.5713 0.0686717ZM21 0.837703V13.1676L13.2861 6.89209L20.9786 0.63384C20.9926 0.698923 21 0.767356 21 0.837703ZM12.7352 7.34025L20.7151 13.8325C20.5967 13.9373 20.449 14 20.2907 14H0.720105C0.561531 14 0.414114 13.9373 0.295658 13.8325L8.27563 7.34025C9.00322 7.93222 9.45449 8.40239 10.5336 8.37966C11.5703 8.35813 12.0311 7.91308 12.7352 7.34025ZM7.72442 6.89209L0.0107949 13.1676C0.0107949 11.9011 -0.0243383 0.898957 0.0321596 0.633601L7.72442 6.89209Z" fill="white"/>
</svg>
