<svg width="52" height="52" viewBox="0 0 52 52" fill="none" xmlns="http://www.w3.org/2000/svg">
<path fill-rule="evenodd" clip-rule="evenodd" d="M19.1294 13.3172L38.6701 32.8579C42.1184 31.5442 46.2236 32.3653 49.1793 35.1568C52.1351 38.1125 52.7919 42.5461 50.9856 46.1587L44.7458 39.7546C41.6258 36.6347 36.8638 41.3967 39.9837 44.5166L46.3878 50.9207C42.7753 52.5628 38.3417 51.9059 35.3859 48.9502C32.4302 46.1587 31.7734 41.8893 33.087 38.4409L13.5464 18.9003C10.098 20.2139 5.82865 19.5571 3.03712 16.6014C0.0813936 13.6457 -0.575435 9.21206 1.06664 5.5995L7.47072 12.0036C10.5907 15.1235 15.3527 10.3615 12.2327 7.24157L5.82865 1.0017C9.44121 -0.804579 13.8748 -0.14775 16.8305 2.80798C19.6221 5.76371 20.4431 9.86889 19.1294 13.3172ZM1.55926 43.0387L17.4874 27.1106L24.7125 34.3358L8.78438 50.2639C4.02237 55.0259 -3.20275 47.8008 1.55926 43.0387ZM29.3103 19.2287L37.8491 10.6899L42.1184 3.95743L48.3583 0.180665L51.6425 3.3006L47.7015 9.70468L41.1332 13.8099L32.4302 22.5128L29.3103 19.2287Z" fill="#2B579A"/>
</svg>
