<svg width="169" height="37" viewBox="0 0 169 37" fill="none" xmlns="http://www.w3.org/2000/svg">
<path d="M7.94922 0.316895C7.9614 0.359535 8.48526 3.20421 9.10658 6.63974C9.7279 10.0753 10.2578 12.9321 10.2822 12.993C10.3127 13.06 10.7939 10.5626 11.4761 6.84075C12.1035 3.39913 12.6335 0.505728 12.6518 0.408266L12.6822 0.243799H10.3005C8.42434 0.243799 7.93094 0.262074 7.94922 0.316895Z" fill="#2B579A"/>
<path d="M22.1726 0.469189C22.136 0.597107 20.7107 5.6895 19.0173 11.787L15.9289 22.8733L10.3127 22.8915C5.00711 22.9037 4.69645 22.8976 4.66599 22.8002C4.64772 22.7392 3.61827 19.0296 2.37563 14.5585C1.13299 10.0875 0.0913706 6.35954 0.0609137 6.27427C0.0304569 6.18899 0.00609137 12.5667 0.00609137 21.058L0 36.0002H17.9086H35.8173V18.122V0.243809H29.0254H22.2396L22.1726 0.469189Z" fill="#2B579A"/>
<path d="M77.1727 9.84559C75.0469 10.1563 73.4083 11.6425 72.8357 13.7806C72.6895 14.3167 72.6773 14.4933 72.6712 15.474C72.6651 16.6618 72.7443 17.1979 73.0428 18.0324C73.5788 19.5187 74.8397 20.6334 76.4418 21.0476C77.4651 21.3096 79.0123 21.3096 80.0296 21.0415C82.4905 20.3958 83.8732 18.1786 83.6966 15.1695C83.6479 14.3167 83.5809 13.9146 83.3494 13.1776C82.8621 11.6425 81.8265 10.5887 80.3098 10.0892C79.4814 9.82123 78.0986 9.71159 77.1727 9.84559ZM78.6408 12.27C79.3656 12.5989 79.7555 13.5918 79.8042 15.2608C79.8408 16.3512 79.7798 16.8994 79.5666 17.5512C79.0306 19.1837 77.5991 19.3116 76.8925 17.7887C76.5636 17.0821 76.5027 16.741 76.5027 15.474C76.5027 14.2618 76.5392 14.0365 76.8377 13.2446C76.9839 12.8486 77.3859 12.3613 77.6601 12.2395C77.922 12.1238 78.3484 12.136 78.6408 12.27Z" fill="#2B579A"/>
<path d="M101.112 9.8456C98.9861 10.1563 97.3476 11.6426 96.775 13.7806C96.6288 14.3167 96.6166 14.4933 96.6105 15.474C96.6044 16.8994 96.7689 17.7096 97.2562 18.6415C97.8592 19.805 99.0227 20.7004 100.381 21.0476C101.24 21.2669 102.757 21.3096 103.597 21.139C106.29 20.5847 107.819 18.3309 107.636 15.1695C107.587 14.3167 107.52 13.9146 107.289 13.1776C106.801 11.6426 105.766 10.5887 104.249 10.0893C103.421 9.82123 102.038 9.71159 101.112 9.8456ZM102.574 12.27C103.311 12.605 103.689 13.5735 103.744 15.2608C103.792 16.6862 103.634 17.5207 103.201 18.203C102.574 19.1837 101.453 19.0314 100.868 17.8862C100.527 17.204 100.442 16.7349 100.442 15.474C100.442 14.2618 100.479 14.0365 100.777 13.2446C100.923 12.8486 101.325 12.3613 101.599 12.2395C101.861 12.1238 102.288 12.136 102.574 12.27Z" fill="#2B579A"/>
<path d="M49 11.0882V12.0872L49.4386 12.1055L49.8772 12.1238L51.9299 16.54L53.9888 20.9563H55.4264H56.864L58.734 16.5218L60.6041 12.0933H60.9817H61.3655V11.0882V10.0832H59.1726H56.9797V11.0882V12.0933H57.3756C57.5949 12.0933 57.7716 12.1116 57.7716 12.1299C57.7716 12.1481 57.4183 13.0192 56.9858 14.0608C56.1878 15.9918 55.932 16.7106 55.8528 17.2223C55.8041 17.5451 55.7188 17.5999 55.6701 17.3441C55.4995 16.4913 54.8477 14.5969 53.9036 12.1969C53.867 12.1055 53.9036 12.0933 54.2934 12.0933H54.7259V11.0882V10.0832H51.8629H49V11.0882Z" fill="#2B579A"/>
<path d="M62.4619 11.0882V12.0933H62.8883H63.3147L63.3025 15.5167L63.2842 18.9461L62.8761 18.9644L62.4619 18.9827V19.9816V20.9867H66.8172H71.1726V18.9766V16.9664H69.8934H68.6142L68.602 17.9532L68.5837 18.9461L67.5665 18.9644L66.5431 18.9766V15.5349V12.0933H66.9391H67.335V11.0882V10.0832H64.8985H62.4619V11.0882Z" fill="#2B579A"/>
<path d="M85.1826 11.0517V12.0324H85.6395H86.0963V15.5045V18.9766H85.6395H85.1826V19.9816V20.9867H88.4293C90.2202 20.9867 91.9136 20.9563 92.2181 20.9258C93.5887 20.7674 94.4841 20.3289 94.9105 19.604C95.41 18.7512 95.4831 17.4233 95.075 16.5705C94.8192 16.0223 94.1491 15.474 93.4547 15.2426C93.2841 15.1816 93.3268 15.1207 93.6618 14.9563C94.3623 14.6152 94.7278 14.0182 94.7887 13.0984C94.874 11.8192 94.4476 11.0091 93.4364 10.5278C92.5958 10.1319 92.5288 10.1258 88.673 10.1014L85.1826 10.0771V11.0517ZM90.7867 12.2334C91.1583 12.4283 91.3349 12.7756 91.3349 13.3055C91.3349 13.805 91.1765 14.1766 90.8963 14.3471C90.7258 14.4507 90.5918 14.469 89.9826 14.469H89.2638V13.2811V12.0933H89.8912C90.4334 12.0933 90.5613 12.1116 90.7867 12.2334ZM91.1217 16.3512C91.6273 16.5827 91.8466 17.0152 91.81 17.7278C91.7918 18.1055 91.7613 18.2152 91.609 18.4344C91.5055 18.5745 91.3044 18.7573 91.1583 18.8365C90.9146 18.9644 90.811 18.9766 90.074 18.9766H89.2638V17.606V16.2355H90.074C90.7197 16.2355 90.9268 16.2598 91.1217 16.3512Z" fill="#2B579A"/>
<path d="M108.574 11.0882V12.0872L109.006 12.1055L109.445 12.1238L111.504 16.54L113.556 20.9563H115H116.438L118.308 16.5218L120.172 12.0933H120.555H120.939V11.0882V10.0832H118.746H116.553V11.0882V12.0933H116.949C117.169 12.0933 117.345 12.1116 117.345 12.1299C117.345 12.1481 117.01 12.9644 116.602 13.939C115.786 15.9065 115.548 16.5522 115.439 17.1248C115.366 17.5451 115.299 17.6182 115.244 17.3441C115.073 16.4852 114.519 14.8649 113.477 12.1969C113.441 12.1055 113.477 12.0933 113.867 12.0933H114.3V11.0882V10.0832H111.437H108.574V11.0882Z" fill="#2B579A"/>
<path d="M122.036 11.0882V12.0933H122.523H123.01L122.998 15.5167L122.98 18.9461L122.511 18.9644L122.036 18.9827V19.9816V20.9867H124.594H127.152V19.9816V18.9827L126.683 18.9644L126.208 18.9461L126.19 15.5167L126.178 12.0933H126.665H127.152V11.0882V10.0832H124.594H122.036V11.0882Z" fill="#2B579A"/>
<path d="M128.797 11.0578V12.0324H129.223H129.65V15.5045V18.9766H129.223H128.797V19.9816V20.9867H131.233H133.67V19.9816V18.9766H133.244H132.817V18.136V17.2954L133.408 16.7898C133.883 16.3816 134.005 16.3025 134.066 16.3695C134.157 16.4669 135.613 18.7695 135.662 18.8913C135.686 18.9583 135.595 18.9766 135.168 18.9766H134.645V19.9816V20.9867H137.69H140.736V19.9816V18.9827L140.267 18.9644L139.798 18.9461L138.232 16.5096C137.367 15.1695 136.667 14.0547 136.673 14.0365C136.679 14.0121 137.197 13.5553 137.824 13.0131L138.963 12.0324H139.39H139.822V11.0578V10.0832H137.233H134.645V11.0578V12.0324H135.193C135.497 12.0324 135.741 12.0568 135.741 12.0811C135.741 12.1542 132.957 14.5908 132.878 14.5908C132.842 14.5908 132.817 14.1583 132.817 13.3116V12.0324H133.244H133.67V11.0578V10.0832H131.233H128.797V11.0578Z" fill="#2B579A"/>
<path d="M147.193 11.0578V12.0263L147.638 12.0446L148.077 12.0628L148.095 15.5167L148.107 18.9766H147.65H147.193V19.9877V20.9928L150.806 20.9684C154.6 20.9441 154.674 20.938 155.551 20.6456C155.983 20.5055 156.544 20.1156 156.781 19.7867C157.39 18.9644 157.518 17.5634 157.08 16.5887C156.824 16.0101 156.27 15.5532 155.417 15.2182C155.271 15.1573 155.277 15.1512 155.63 14.9684C156.379 14.5969 156.72 14.0425 156.793 13.0984C156.891 11.941 156.434 11.0273 155.539 10.5705C154.661 10.1258 154.186 10.0832 150.385 10.0832H147.193V11.0578ZM152.761 12.2151C152.901 12.2821 153.078 12.4344 153.163 12.5623C153.297 12.7573 153.315 12.8486 153.315 13.3055C153.315 13.9085 153.212 14.1583 152.901 14.3471C152.737 14.4507 152.59 14.4689 151.993 14.4689H151.275V13.2811V12.0933H151.896C152.389 12.0933 152.566 12.1177 152.761 12.2151ZM153.279 16.4365C153.924 16.8689 154.034 18.0202 153.48 18.5867C153.151 18.9278 152.968 18.9766 152.066 18.9766H151.275V17.5999V16.2293L152.146 16.2476C152.986 16.2659 153.029 16.272 153.279 16.4365Z" fill="#2B579A"/>
<path d="M158.157 11.0578V12.0324H158.553H158.943L160.472 14.5786L161.995 17.1187V18.0507V18.9766H161.538H161.081V19.9816V20.9867H163.579H166.076V19.9816V18.9766H165.619H165.162V18.075V17.1796L166.63 14.603L168.098 12.0324H168.519H168.939V11.0578V10.0832H166.837H164.736V11.0578V12.0324H165.162C165.4 12.0324 165.589 12.0568 165.589 12.0811C165.589 12.1116 165.4 12.4771 165.168 12.9035C164.943 13.3238 164.62 13.9695 164.456 14.341C164.297 14.7126 164.145 15.0172 164.127 15.0172C164.102 15.0172 163.999 14.7796 163.889 14.4811C163.78 14.1888 163.475 13.5492 163.207 13.0497C162.945 12.5563 162.726 12.1238 162.726 12.0933C162.726 12.0568 162.902 12.0324 163.122 12.0324H163.518V11.0578V10.0832H160.837H158.157V11.0578Z" fill="#2B579A"/>
<path d="M143.185 17.7948C142.844 17.9654 142.576 18.2395 142.369 18.6294C142.259 18.8304 142.229 18.9887 142.229 19.3725C142.229 19.7928 142.253 19.8964 142.393 20.1461C142.838 20.8953 143.684 21.2182 144.555 20.9563C145.268 20.7431 145.695 20.1705 145.695 19.409C145.695 18.9278 145.554 18.5684 145.207 18.1847C144.708 17.6304 143.849 17.4659 143.185 17.7948Z" fill="#2B579A"/>
<path d="M70.8765 29.7744C69.7251 29.9663 68.9499 30.7032 68.6582 31.8776C68.52 32.4303 68.5354 33.6661 68.6889 34.1958C68.9345 35.0555 69.4565 35.6926 70.1704 35.992C70.677 36.2146 71.5444 36.3067 72.1968 36.2146C73.8778 35.9766 74.7145 34.902 74.7145 32.9907C74.7145 31.8853 74.4689 31.1408 73.9085 30.542C73.2561 29.8512 72.1508 29.5672 70.8765 29.7744ZM72.2045 31.1945C72.6881 31.4248 72.9414 32.0312 72.9491 32.9676C72.9491 34.0423 72.6343 34.664 71.9972 34.8252C71.5597 34.9327 71.0915 34.8406 70.8228 34.5873C70.462 34.2572 70.3315 33.835 70.3315 32.9753C70.3315 32.2845 70.3546 32.1617 70.5465 31.7779C70.8765 31.1177 71.552 30.8798 72.2045 31.1945Z" fill="#2B579A"/>
<path d="M78.4904 29.8051C76.9014 30.1659 76.0341 31.6243 76.2567 33.597C76.4332 35.1706 77.2162 36.015 78.6669 36.2222C79.2887 36.3066 80.1023 36.2299 80.6627 36.038L80.9697 35.9305L80.9927 35.2167C81.0081 34.6256 80.9927 34.5105 80.9083 34.5488C80.8469 34.5719 80.5629 34.664 80.2789 34.7484C78.8588 35.186 78.0452 34.6717 77.9531 33.267C77.8916 32.2307 78.168 31.5092 78.7514 31.2252C79.1582 31.0256 79.5497 31.0333 80.1944 31.2635C80.4938 31.3633 80.7394 31.4401 80.7471 31.4324C80.8239 31.3556 81.223 30.1889 81.1923 30.1428C81.1156 30.0124 80.1714 29.7744 79.5804 29.736C79.1812 29.7053 78.8051 29.7283 78.4904 29.8051Z" fill="#2B579A"/>
<path d="M51.0495 29.8205C50.9958 29.9126 49 36.0688 49 36.1455C49 36.1839 49.4068 36.2146 49.9058 36.2146H50.8115L50.965 35.6159L51.1186 35.0248L52.2009 35.0018L53.2832 34.9788L53.4367 35.5698C53.5288 35.8922 53.6133 36.1685 53.6286 36.1916C53.644 36.2069 54.0585 36.2069 54.5497 36.1992L55.4325 36.1762L54.3809 32.9907L53.3292 29.8052L52.2086 29.7821C51.5868 29.7745 51.0648 29.7898 51.0495 29.8205ZM52.5693 32.2231C52.7612 32.9446 52.9147 33.5587 52.9147 33.5741C52.9147 33.6278 51.5331 33.6048 51.5331 33.5434C51.5331 33.4205 52.1778 30.8414 52.2009 30.8721C52.2162 30.8875 52.3851 31.4939 52.5693 32.2231Z" fill="#2B579A"/>
<path d="M56.73 29.8204C56.6993 29.8434 56.6763 31.3019 56.6763 33.052V36.2375L58.2729 36.1915C60.0307 36.1454 60.4068 36.0763 60.9518 35.6772C61.1283 35.5467 61.3433 35.2934 61.4277 35.1168C61.6196 34.7254 61.6426 34.0345 61.4814 33.6584C61.3663 33.3667 60.9748 33.0136 60.6985 32.9445C60.4452 32.8754 60.4682 32.791 60.7829 32.6375C61.1897 32.4456 61.4584 31.939 61.4584 31.3786C61.443 30.4038 60.9057 29.9816 59.4473 29.8434C58.5953 29.759 56.7991 29.7436 56.73 29.8204ZM59.5164 31.2174C59.6622 31.3249 59.7083 31.4247 59.7083 31.6473C59.7083 32.0541 59.455 32.2307 58.7948 32.2767L58.2882 32.3228V31.6703V31.0102L58.8102 31.0486C59.1249 31.0716 59.4012 31.1407 59.5164 31.2174ZM59.5701 33.6507C59.8311 33.8196 59.9232 34.1036 59.8157 34.426C59.7083 34.7561 59.3859 34.9096 58.7872 34.9096H58.365V34.2341C58.365 33.858 58.388 33.5279 58.4264 33.4972C58.5108 33.3974 59.3705 33.5125 59.5701 33.6507Z" fill="#2B579A"/>
<path d="M62.7397 30.4576V31.1485H63.5457H64.3517V33.6815V36.2146H65.1961H66.0404V33.6815V31.1485H66.808H67.5756V30.4576V29.7668H65.1577H62.7397V30.4576Z" fill="#2B579A"/>
<path d="M82.2368 30.4576V31.1485H83.0428H83.8488V33.6815V36.2146H84.6931H85.5375V33.6815V31.1485H86.3051H87.0727V30.4576V29.7668H84.6547H82.2368V30.4576Z" fill="#2B579A"/>
<path d="M88.5083 29.8205C88.4776 29.8435 88.4546 31.2943 88.4546 33.0444V36.2146H90.3352H92.2158V35.5238V34.8329H91.1796H90.1433V34.1805V33.528H91.1028H92.0623V32.8756V32.2231H91.1028H90.1433V31.6858V31.1485H91.1796H92.2158V30.4576V29.7668H90.3889C89.3834 29.7668 88.5313 29.7898 88.5083 29.8205Z" fill="#2B579A"/>
<path d="M93.8814 29.8205C93.8507 29.8435 93.8276 31.2943 93.8276 33.0444V36.2146H94.672H95.5163V34.6026C95.5163 33.7122 95.5471 32.9907 95.5854 32.9907C95.6161 32.9907 96.069 33.7122 96.591 34.6026L97.5275 36.2146H98.4793H99.4234L98.3948 34.5643C97.8268 33.6585 97.3586 32.8832 97.3586 32.8448C97.3586 32.7988 97.7654 32.1387 98.2643 31.3634C98.7633 30.5881 99.2008 29.9126 99.2315 29.8589C99.2776 29.7898 99.0857 29.7668 98.3718 29.7668H97.4584L96.5603 31.302C96.0613 32.1463 95.6238 32.8372 95.5854 32.8372C95.5471 32.8372 95.5163 32.177 95.5163 31.302V29.7668H94.7257C94.2882 29.7668 93.9044 29.7898 93.8814 29.8205Z" fill="#2B579A"/>
<path d="M101.619 30.0891C101.596 30.2733 101.488 31.0716 101.381 31.8776C101.013 34.6947 100.851 35.1092 100.23 34.9557C100.045 34.9096 100.045 34.9096 100.045 35.5544V36.1992L100.375 36.2452C100.552 36.2759 100.882 36.2606 101.112 36.2145C102.248 35.9996 102.555 35.3778 102.901 32.5454L103.077 31.1484H103.707H104.344V33.6815V36.2145H105.188H106.033V32.9906V29.7667H103.853H101.665L101.619 30.0891Z" fill="#2B579A"/>
<path d="M109.387 29.8205C109.333 29.9126 107.337 36.0688 107.337 36.1455C107.337 36.1839 107.744 36.2146 108.243 36.2146H109.149L109.302 35.6159L109.456 35.0248L110.538 35.0018L111.621 34.9788L111.774 35.5698C111.866 35.8922 111.951 36.1685 111.966 36.1916C111.981 36.2069 112.396 36.2069 112.887 36.1992L113.77 36.1762L112.718 32.9907L111.667 29.8052L110.546 29.7821C109.924 29.7745 109.402 29.7898 109.387 29.8205ZM110.907 32.2231C111.099 32.9446 111.252 33.5587 111.252 33.5741C111.252 33.6278 109.87 33.6048 109.87 33.5434C109.87 33.4205 110.515 30.8414 110.538 30.8721C110.554 30.8875 110.723 31.4939 110.907 32.2231Z" fill="#2B579A"/>
</svg>
