<svg width="169" height="37" viewBox="0 0 169 37" fill="none" xmlns="http://www.w3.org/2000/svg">
<path d="M7.94922 0.0730295C7.9614 0.115669 8.48526 2.96034 9.10658 6.39587C9.7279 9.83141 10.2578 12.6883 10.2822 12.7492C10.3127 12.8162 10.7939 10.3187 11.4761 6.59689C12.1035 3.15526 12.6335 0.261862 12.6518 0.1644L12.6822 -6.67572e-05H10.3005C8.42434 -6.67572e-05 7.93094 0.0182076 7.94922 0.0730295Z" fill="white"/>
<path d="M22.1726 0.225384C22.136 0.353302 20.7107 5.44569 19.0173 11.5432L15.9289 22.6294L10.3127 22.6477C5.00711 22.6599 4.69645 22.6538 4.66599 22.5563C4.64772 22.4954 3.61827 18.7858 2.37563 14.3147C1.13299 9.84366 0.0913706 6.11574 0.0609137 6.03046C0.0304569 5.94518 0.00609137 12.3228 0.00609137 20.8142L0 35.7563H17.9086H35.8173V17.8782V3.8147e-06H29.0254H22.2396L22.1726 0.225384Z" fill="white"/>
<path d="M77.1727 9.60179C75.0469 9.91245 73.4083 11.3987 72.8357 13.5368C72.6895 14.0729 72.6773 14.2495 72.6712 15.2302C72.6651 16.418 72.7443 16.9541 73.0428 17.7886C73.5788 19.2749 74.8397 20.3896 76.4418 20.8038C77.4651 21.0657 79.0123 21.0657 80.0296 20.7977C82.4905 20.152 83.8732 17.9348 83.6966 14.9256C83.6479 14.0729 83.5809 13.6708 83.3494 12.9338C82.8621 11.3987 81.8265 10.3449 80.3098 9.84544C79.4814 9.57742 78.0986 9.46778 77.1727 9.60179ZM78.6408 12.0262C79.3656 12.3551 79.7555 13.348 79.8042 15.017C79.8408 16.1074 79.7798 16.6556 79.5666 17.3074C79.0306 18.9399 77.5991 19.0678 76.8925 17.5449C76.5636 16.8383 76.5027 16.4972 76.5027 15.2302C76.5027 14.018 76.5392 13.7927 76.8377 13.0008C76.9839 12.6048 77.3859 12.1175 77.6601 11.9957C77.922 11.88 78.3484 11.8921 78.6408 12.0262Z" fill="white"/>
<path d="M101.112 9.6018C98.9861 9.91246 97.3476 11.3987 96.775 13.5368C96.6288 14.0729 96.6166 14.2495 96.6105 15.2302C96.6044 16.6556 96.7689 17.4658 97.2562 18.3977C97.8592 19.5612 99.0227 20.4566 100.381 20.8038C101.24 21.0231 102.757 21.0658 103.597 20.8952C106.29 20.3409 107.819 18.0871 107.636 14.9257C107.587 14.0729 107.52 13.6708 107.289 12.9338C106.801 11.3987 105.766 10.3449 104.249 9.84545C103.421 9.57743 102.038 9.46778 101.112 9.6018ZM102.574 12.0262C103.311 12.3612 103.689 13.3297 103.744 15.017C103.792 16.4424 103.634 17.2769 103.201 17.9592C102.574 18.9399 101.453 18.7876 100.868 17.6424C100.527 16.9602 100.442 16.4911 100.442 15.2302C100.442 14.018 100.479 13.7927 100.777 13.0008C100.923 12.6048 101.325 12.1175 101.599 11.9957C101.861 11.88 102.288 11.8922 102.574 12.0262Z" fill="white"/>
<path d="M49 10.8444V11.8434L49.4386 11.8616L49.8772 11.8799L51.9299 16.2962L53.9888 20.7124H55.4264H56.864L58.734 16.2779L60.6041 11.8495H60.9817H61.3655V10.8444V9.83931H59.1726H56.9797V10.8444V11.8495H57.3756C57.5949 11.8495 57.7716 11.8677 57.7716 11.886C57.7716 11.9043 57.4183 12.7753 56.9858 13.817C56.1878 15.7479 55.932 16.4667 55.8528 16.9784C55.8041 17.3012 55.7188 17.3561 55.6701 17.1002C55.4995 16.2474 54.8477 14.353 53.9036 11.953C53.867 11.8616 53.9036 11.8495 54.2934 11.8495H54.7259V10.8444V9.83931H51.8629H49V10.8444Z" fill="white"/>
<path d="M62.4619 10.8447V11.8498H62.8883H63.3147L63.3025 15.2731L63.2842 18.7026L62.8761 18.7208L62.4619 18.7391V19.7381V20.7432H66.8172H71.1726V18.733V16.7229H69.8934H68.6142L68.602 17.7097L68.5837 18.7026L67.5665 18.7208L66.5431 18.733V15.2914V11.8498H66.9391H67.335V10.8447V9.83961H64.8985H62.4619V10.8447Z" fill="white"/>
<path d="M85.1826 10.8081V11.7888H85.6395H86.0963V15.2609V18.733H85.6395H85.1826V19.7381V20.7432H88.4293C90.2202 20.7432 91.9136 20.7127 92.2181 20.6823C93.5887 20.5239 94.4841 20.0853 94.9105 19.3604C95.41 18.5076 95.4831 17.1797 95.075 16.3269C94.8192 15.7787 94.1491 15.2305 93.4547 14.999C93.2841 14.9381 93.3268 14.8772 93.6618 14.7127C94.3623 14.3716 94.7278 13.7746 94.7887 12.8548C94.874 11.5757 94.4476 10.7655 93.4364 10.2843C92.5958 9.88834 92.5288 9.88225 88.673 9.85788L85.1826 9.83352V10.8081ZM90.7867 11.9899C91.1583 12.1848 91.3349 12.532 91.3349 13.0619C91.3349 13.5614 91.1765 13.933 90.8963 14.1036C90.7258 14.2071 90.5918 14.2254 89.9826 14.2254H89.2638V13.0376V11.8498H89.8912C90.4334 11.8498 90.5613 11.868 90.7867 11.9899ZM91.1217 16.1076C91.6273 16.3391 91.8466 16.7716 91.81 17.4843C91.7918 17.8619 91.7613 17.9716 91.609 18.1909C91.5055 18.331 91.3044 18.5137 91.1583 18.5929C90.9146 18.7208 90.811 18.733 90.074 18.733H89.2638V17.3625V15.9919H90.074C90.7197 15.9919 90.9268 16.0163 91.1217 16.1076Z" fill="white"/>
<path d="M108.574 10.8444V11.8434L109.006 11.8616L109.445 11.8799L111.504 16.2962L113.556 20.7124H115H116.438L118.308 16.2779L120.172 11.8495H120.555H120.939V10.8444V9.83931H118.746H116.553V10.8444V11.8495H116.949C117.169 11.8495 117.345 11.8677 117.345 11.886C117.345 11.9043 117.01 12.7205 116.602 13.6951C115.786 15.6627 115.548 16.3083 115.439 16.8809C115.366 17.3012 115.299 17.3743 115.244 17.1002C115.073 16.2413 114.519 14.621 113.477 11.953C113.441 11.8616 113.477 11.8495 113.867 11.8495H114.3V10.8444V9.83931H111.437H108.574V10.8444Z" fill="white"/>
<path d="M122.036 10.8447V11.8498H122.523H123.01L122.998 15.2731L122.98 18.7026L122.511 18.7208L122.036 18.7391V19.7381V20.7432H124.594H127.152V19.7381V18.7391L126.683 18.7208L126.208 18.7026L126.19 15.2731L126.178 11.8498H126.665H127.152V10.8447V9.83961H124.594H122.036V10.8447Z" fill="white"/>
<path d="M128.797 10.8142V11.7888H129.223H129.65V15.2609V18.733H129.223H128.797V19.7381V20.7432H131.233H133.67V19.7381V18.733H133.244H132.817V17.8924V17.0518L133.408 16.5462C133.883 16.1381 134.005 16.0589 134.066 16.1259C134.157 16.2234 135.613 18.5259 135.662 18.6477C135.686 18.7147 135.595 18.733 135.168 18.733H134.645V19.7381V20.7432H137.69H140.736V19.7381V18.7391L140.267 18.7208L139.798 18.7026L138.232 16.266C137.367 14.9259 136.667 13.8112 136.673 13.7929C136.679 13.7685 137.197 13.3117 137.824 12.7696L138.963 11.7888H139.39H139.822V10.8142V9.83961H137.233H134.645V10.8142V11.7888H135.193C135.497 11.7888 135.741 11.8132 135.741 11.8376C135.741 11.9107 132.957 14.3472 132.878 14.3472C132.842 14.3472 132.817 13.9147 132.817 13.068V11.7888H133.244H133.67V10.8142V9.83961H131.233H128.797V10.8142Z" fill="white"/>
<path d="M147.193 10.814V11.7825L147.638 11.8008L148.077 11.8191L148.095 15.2729L148.107 18.7328H147.65H147.193V19.7439V20.749L150.806 20.7247C154.6 20.7003 154.674 20.6942 155.551 20.4018C155.983 20.2617 156.544 19.8719 156.781 19.5429C157.39 18.7206 157.518 17.3196 157.08 16.345C156.824 15.7663 156.27 15.3094 155.417 14.9744C155.271 14.9135 155.277 14.9074 155.63 14.7247C156.379 14.3531 156.72 13.7988 156.793 12.8546C156.891 11.6972 156.434 10.7835 155.539 10.3267C154.661 9.88202 154.186 9.83938 150.385 9.83938H147.193V10.814ZM152.761 11.9714C152.901 12.0384 153.078 12.1906 153.163 12.3186C153.297 12.5135 153.315 12.6049 153.315 13.0617C153.315 13.6648 153.212 13.9145 152.901 14.1033C152.737 14.2069 152.59 14.2252 151.993 14.2252H151.275V13.0373V11.8495H151.896C152.389 11.8495 152.566 11.8739 152.761 11.9714ZM153.279 16.1927C153.924 16.6252 154.034 17.7764 153.48 18.3429C153.151 18.684 152.968 18.7328 152.066 18.7328H151.275V17.3561V15.9856L152.146 16.0038C152.986 16.0221 153.029 16.0282 153.279 16.1927Z" fill="white"/>
<path d="M158.157 10.8142V11.7888H158.553H158.943L160.472 14.335L161.995 16.8751V17.8071V18.733H161.538H161.081V19.7381V20.7432H163.579H166.076V19.7381V18.733H165.619H165.162V17.8315V16.9361L166.63 14.3594L168.098 11.7888H168.519H168.939V10.8142V9.83961H166.837H164.736V10.8142V11.7888H165.162C165.4 11.7888 165.589 11.8132 165.589 11.8376C165.589 11.868 165.4 12.2335 165.168 12.6599C164.943 13.0802 164.62 13.7259 164.456 14.0975C164.297 14.4691 164.145 14.7736 164.127 14.7736C164.102 14.7736 163.999 14.5361 163.889 14.2376C163.78 13.9452 163.475 13.3056 163.207 12.8061C162.945 12.3127 162.726 11.8802 162.726 11.8498C162.726 11.8132 162.902 11.7888 163.122 11.7888H163.518V10.8142V9.83961H160.837H158.157V10.8142Z" fill="white"/>
<path d="M143.185 17.551C142.844 17.7215 142.576 17.9956 142.369 18.3855C142.259 18.5865 142.229 18.7449 142.229 19.1286C142.229 19.5489 142.253 19.6525 142.393 19.9022C142.838 20.6515 143.684 20.9743 144.555 20.7124C145.268 20.4992 145.695 19.9266 145.695 19.1652C145.695 18.684 145.554 18.3246 145.207 17.9408C144.708 17.3865 143.849 17.222 143.185 17.551Z" fill="white"/>
<path d="M70.8765 29.5308C69.7251 29.7227 68.9499 30.4596 68.6582 31.634C68.52 32.1867 68.5354 33.4225 68.6889 33.9521C68.9345 34.8118 69.4565 35.449 70.1704 35.7483C70.677 35.9709 71.5444 36.063 72.1968 35.9709C73.8778 35.733 74.7145 34.6583 74.7145 32.747C74.7145 31.6417 74.4689 30.8971 73.9085 30.2984C73.2561 29.6075 72.1508 29.3235 70.8765 29.5308ZM72.2045 30.9508C72.6881 31.1811 72.9414 31.7875 72.9491 32.724C72.9491 33.7986 72.6343 34.4204 71.9972 34.5816C71.5597 34.689 71.0915 34.5969 70.8228 34.3436C70.462 34.0135 70.3315 33.5914 70.3315 32.7317C70.3315 32.0408 70.3546 31.918 70.5465 31.5342C70.8765 30.8741 71.552 30.6361 72.2045 30.9508Z" fill="white"/>
<path d="M78.4904 29.5615C76.9014 29.9223 76.0341 31.3807 76.2567 33.3535C76.4332 34.927 77.2162 35.7714 78.6669 35.9786C79.2887 36.0631 80.1023 35.9863 80.6627 35.7944L80.9697 35.687L80.9927 34.9731C81.0081 34.382 80.9927 34.2669 80.9083 34.3053C80.8469 34.3283 80.5629 34.4204 80.2789 34.5049C78.8588 34.9424 78.0452 34.4281 77.9531 33.0234C77.8916 31.9871 78.168 31.2656 78.7514 30.9816C79.1582 30.782 79.5497 30.7897 80.1944 31.02C80.4938 31.1198 80.7394 31.1965 80.7471 31.1888C80.8239 31.1121 81.223 29.9453 81.1923 29.8993C81.1156 29.7688 80.1714 29.5308 79.5804 29.4925C79.1812 29.4618 78.8051 29.4848 78.4904 29.5615Z" fill="white"/>
<path d="M51.0495 29.5771C50.9958 29.6692 49 35.8253 49 35.9021C49 35.9405 49.4068 35.9712 49.9058 35.9712H50.8115L50.965 35.3725L51.1186 34.7814L52.2009 34.7584L53.2832 34.7354L53.4367 35.3264C53.5288 35.6488 53.6133 35.9251 53.6286 35.9482C53.644 35.9635 54.0585 35.9635 54.5497 35.9558L55.4325 35.9328L54.3809 32.7473L53.3292 29.5618L52.2086 29.5387C51.5868 29.5311 51.0648 29.5464 51.0495 29.5771ZM52.5693 31.9797C52.7612 32.7012 52.9147 33.3153 52.9147 33.3307C52.9147 33.3844 51.5331 33.3614 51.5331 33.3C51.5331 33.1771 52.1778 30.598 52.2009 30.6287C52.2162 30.6441 52.3851 31.2505 52.5693 31.9797Z" fill="white"/>
<path d="M56.73 29.5765C56.6993 29.5996 56.6763 31.058 56.6763 32.8081V35.9937L58.2729 35.9476C60.0307 35.9015 60.4068 35.8325 60.9518 35.4333C61.1283 35.3028 61.3433 35.0495 61.4277 34.873C61.6196 34.4815 61.6426 33.7906 61.4814 33.4145C61.3663 33.1228 60.9748 32.7697 60.6985 32.7007C60.4452 32.6316 60.4682 32.5471 60.7829 32.3936C61.1897 32.2017 61.4584 31.6951 61.4584 31.1348C61.443 30.1599 60.9057 29.7377 59.4473 29.5996C58.5953 29.5151 56.7991 29.4998 56.73 29.5765ZM59.5164 30.9736C59.6622 31.081 59.7083 31.1808 59.7083 31.4034C59.7083 31.8102 59.455 31.9868 58.7948 32.0329L58.2882 32.0789V31.4265V30.7663L58.8102 30.8047C59.1249 30.8277 59.4012 30.8968 59.5164 30.9736ZM59.5701 33.4069C59.8311 33.5757 59.9232 33.8597 59.8157 34.1821C59.7083 34.5122 59.3859 34.6657 58.7872 34.6657H58.365V33.9902C58.365 33.6141 58.388 33.284 58.4264 33.2533C58.5108 33.1535 59.3705 33.2687 59.5701 33.4069Z" fill="white"/>
<path d="M62.7397 30.2142V30.9051H63.5457H64.3517V33.4381V35.9712H65.1961H66.0404V33.4381V30.9051H66.808H67.5756V30.2142V29.5234H65.1577H62.7397V30.2142Z" fill="white"/>
<path d="M82.2368 30.2142V30.9051H83.0428H83.8488V33.4381V35.9712H84.6931H85.5375V33.4381V30.9051H86.3051H87.0727V30.2142V29.5234H84.6547H82.2368V30.2142Z" fill="white"/>
<path d="M88.5083 29.5771C88.4776 29.6001 88.4546 31.0509 88.4546 32.801V35.9712H90.3352H92.2158V35.2804V34.5895H91.1796H90.1433V33.9371V33.2846H91.1028H92.0623V32.6321V31.9797H91.1028H90.1433V31.4424V30.9051H91.1796H92.2158V30.2142V29.5234H90.3889C89.3834 29.5234 88.5313 29.5464 88.5083 29.5771Z" fill="white"/>
<path d="M93.8814 29.5771C93.8507 29.6001 93.8276 31.0509 93.8276 32.801V35.9712H94.672H95.5163V34.3592C95.5163 33.4688 95.5471 32.7473 95.5854 32.7473C95.6161 32.7473 96.069 33.4688 96.591 34.3592L97.5275 35.9712H98.4793H99.4234L98.3948 34.3209C97.8268 33.4151 97.3586 32.6398 97.3586 32.6014C97.3586 32.5554 97.7654 31.8953 98.2643 31.12C98.7633 30.3447 99.2008 29.6692 99.2315 29.6155C99.2776 29.5464 99.0857 29.5234 98.3718 29.5234H97.4584L96.5603 31.0586C96.0613 31.9029 95.6238 32.5938 95.5854 32.5938C95.5471 32.5938 95.5163 31.9336 95.5163 31.0586V29.5234H94.7257C94.2882 29.5234 93.9044 29.5464 93.8814 29.5771Z" fill="white"/>
<path d="M101.619 29.8455C101.596 30.0297 101.488 30.828 101.381 31.634C101.013 34.4511 100.851 34.8656 100.23 34.712C100.045 34.666 100.045 34.666 100.045 35.3108V35.9555L100.375 36.0016C100.552 36.0323 100.882 36.017 101.112 35.9709C102.248 35.756 102.555 35.1342 102.901 32.3018L103.077 30.9048H103.707H104.344V33.4378V35.9709H105.188H106.033V32.747V29.5231H103.853H101.665L101.619 29.8455Z" fill="white"/>
<path d="M109.387 29.5771C109.333 29.6692 107.337 35.8253 107.337 35.9021C107.337 35.9405 107.744 35.9712 108.243 35.9712H109.149L109.302 35.3725L109.456 34.7814L110.538 34.7584L111.621 34.7354L111.774 35.3264C111.866 35.6488 111.951 35.9251 111.966 35.9482C111.981 35.9635 112.396 35.9635 112.887 35.9558L113.77 35.9328L112.718 32.7473L111.667 29.5618L110.546 29.5387C109.924 29.5311 109.402 29.5464 109.387 29.5771ZM110.907 31.9797C111.099 32.7012 111.252 33.3153 111.252 33.3307C111.252 33.3844 109.87 33.3614 109.87 33.3C109.87 33.1771 110.515 30.598 110.538 30.6287C110.554 30.6441 110.723 31.2505 110.907 31.9797Z" fill="white"/>
</svg>
