<svg width="68" height="68" viewBox="0 0 68 68" fill="none" xmlns="http://www.w3.org/2000/svg">
<path d="M66.9221 43.1664L50.2512 59.5036C40.7458 65.354 39.5387 65.2904 25.3179 58.5171C24.4909 58.1972 23.6077 58.048 22.7215 58.0783C22.198 58.0795 21.6753 58.119 21.1575 58.1968L13.7463 44.4937L15.7848 43.0545C15.8654 42.997 15.9354 42.926 15.9917 42.8446C21.3198 35.0716 27.0815 35.5989 32.0141 37.1405L32.5383 37.305C36.8231 38.6513 37.7487 38.8042 45.3091 36.3039C47.6599 35.5258 49.4827 36.6805 50.0691 38.2221C50.6029 39.6247 50.17 41.7191 47.1934 43.004L37.6083 47.1403C37.5864 47.1495 37.5652 47.1598 37.5447 47.171L34.8986 48.5919C34.8986 48.5919 37.3902 48.9739 37.6025 49.038C38.2747 49.128 38.9284 49.3237 39.5394 49.6179C41.042 50.2453 42.9123 51.0264 47.0779 50.0091C47.1679 49.987 47.2536 49.9502 47.3316 49.9002L65.3098 38.3193C65.4619 38.1969 65.6379 38.1076 65.8266 38.0573C66.0152 38.007 66.2123 37.9967 66.4051 38.0272C66.598 38.0576 66.7823 38.1281 66.9463 38.2341C67.1102 38.3401 67.2502 38.4792 67.3572 38.6426C67.8414 39.3226 68.064 40.1546 67.9841 40.9857C67.9041 41.8168 67.5271 42.5911 66.9221 43.1664ZM11.688 44.2092C11.6404 44.1224 11.5702 44.05 11.4849 43.9998C11.3996 43.9496 11.3022 43.9234 11.2032 43.924C11.1138 43.9239 11.0258 43.9462 10.9473 43.9891L9.65166 44.6919L17.6369 63.389L20.5806 61.7962C20.7065 61.7257 20.7999 61.6088 20.8409 61.4704C20.8818 61.332 20.8672 61.1831 20.8 61.0554L11.688 44.2092ZM16.2213 64.3345C16.3265 64.5221 16.3578 64.7422 16.3091 64.9516C16.2604 65.161 16.1352 65.3447 15.9581 65.4666L11.0994 67.9047C10.9754 67.9667 10.8388 67.9993 10.7002 67.9998C10.5579 68.0029 10.4175 67.9669 10.2942 67.8957C10.171 67.8246 10.0696 67.7209 10.0012 67.5961L0.0951374 49.2844C-0.00464939 49.0993 -0.0269725 48.8822 0.0330638 48.6807C0.0931 48.4792 0.230595 48.3097 0.415394 48.2094L6.90023 44.6992C7.02665 44.6317 7.16787 44.5968 7.31116 44.5975C7.43913 44.5884 7.56697 44.617 7.67895 44.6796C7.79093 44.7422 7.88217 44.8362 7.94143 44.95L16.2213 64.3345ZM12.5654 63.133L10.4852 59.2879C10.3797 59.0928 10.2011 58.9477 9.98861 58.8844C9.88341 58.8531 9.77306 58.8428 9.66387 58.8541C9.55469 58.8654 9.44879 58.8981 9.35225 58.9504C9.2557 59.0026 9.17038 59.0734 9.10117 59.1586C9.03197 59.2438 8.98022 59.3418 8.94888 59.447C8.8856 59.6595 8.90931 59.8885 9.01481 60.0835L11.095 63.9287C11.2005 64.1237 11.3791 64.2688 11.5916 64.3321C11.8041 64.3954 12.033 64.3717 12.228 64.2662C12.423 64.1607 12.5681 63.982 12.6313 63.7695C12.6946 63.557 12.6709 63.328 12.5654 63.133ZM26.1566 15.3968C26.1565 12.3517 27.0591 9.37495 28.7505 6.84299C30.4419 4.31103 32.846 2.33757 35.6588 1.17217C38.4716 0.00676858 41.5667 -0.298228 44.5528 0.295748C47.5389 0.889725 50.2819 2.356 52.4348 4.50914C54.5877 6.66229 56.0538 9.40559 56.6478 12.3922C57.2419 15.3787 56.9371 18.4744 55.772 21.2877C54.6069 24.101 52.6339 26.5055 50.1024 28.1973C47.5709 29.8891 44.5947 30.7921 41.5501 30.7921C37.4701 30.7841 33.5594 29.1596 30.6743 26.2742C27.7892 23.3887 26.1647 19.4775 26.1566 15.3968ZM37.1594 19.5652C37.1594 21.3247 38.6949 22.7931 40.7144 23.1164V25.0177C40.7208 25.2352 40.8117 25.4417 40.9678 25.5933C41.1239 25.7448 41.3329 25.8296 41.5505 25.8296C41.7681 25.8296 41.9771 25.7448 42.1332 25.5933C42.2893 25.4417 42.3802 25.2352 42.3866 25.0177V23.1164C44.4091 22.7931 45.9409 21.3247 45.9409 19.5652V18.1757C45.9409 15.3704 43.4929 14.9097 41.7051 14.5726C39.663 14.1879 38.8316 13.9027 38.8316 12.6127V11.2232C38.8316 10.1687 40.0746 9.27799 41.5501 9.27799C43.0257 9.27799 44.2694 10.1687 44.2694 11.2232V11.9758C44.2694 12.1974 44.3574 12.4101 44.5142 12.5668C44.6709 12.7236 44.8835 12.8116 45.1051 12.8116C45.3268 12.8116 45.5394 12.7236 45.6961 12.5668C45.8528 12.4101 45.9409 12.1974 45.9409 11.9758V11.2247C45.9409 9.46594 44.4054 7.99676 42.3866 7.67426V5.77215C42.3802 5.55464 42.2893 5.3482 42.1332 5.19663C41.9771 5.04506 41.7681 4.96027 41.5505 4.96027C41.3329 4.96027 41.1239 5.04506 40.9678 5.19663C40.8117 5.3482 40.7208 5.55464 40.7144 5.77215V7.67352C38.692 7.99603 37.1594 9.46521 37.1594 11.224V12.6134C37.1594 15.4187 39.6081 15.8802 41.3959 16.2166C43.4373 16.6012 44.2694 16.8864 44.2694 18.1764V19.5659C44.2694 20.6204 43.0264 21.5112 41.5501 21.5112C40.0739 21.5112 38.8316 20.6204 38.8316 19.5659V18.8156C38.8252 18.5981 38.7343 18.3916 38.5782 18.2401C38.4221 18.0885 38.2131 18.0037 37.9955 18.0037C37.7779 18.0037 37.5689 18.0885 37.4128 18.2401C37.2567 18.3916 37.1658 18.5981 37.1594 18.8156V19.5652Z" fill="#2B579A"/>
</svg>
