<svg width="19" height="19" viewBox="0 0 19 19" fill="none" xmlns="http://www.w3.org/2000/svg">
<path d="M14.7421 11.9743C16.5705 12.7079 17.9346 13.686 18.9694 14.8362C19.2304 16.6988 17.7745 18.0644 16.444 18.9028C13.2911 19.4601 8.81282 17.5975 5.10766 13.8923C1.4025 10.1872 -0.460134 5.70886 0.0971544 2.55596C0.935607 1.22551 2.30116 -0.230417 4.1638 0.0306305C5.31406 1.0654 6.29217 2.42962 7.0258 4.25814C7.14794 4.56257 7.07809 4.90987 6.8549 5.15024C6.48883 5.54452 5.8269 6.20891 4.80595 7.06564C4.54885 7.28139 4.48619 7.65016 4.65025 7.94297C5.36295 9.21503 6.29034 10.4461 7.42212 11.5779C8.55346 12.7092 9.78594 13.6383 11.0562 14.353C11.3494 14.518 11.7191 14.4551 11.935 14.1972C12.7913 13.1745 13.4554 12.5119 13.8496 12.1455C14.09 11.922 14.4375 11.8521 14.7421 11.9743Z" fill="white"/>
</svg>
