<svg width="75" height="52" viewBox="0 0 75 52" fill="none" xmlns="http://www.w3.org/2000/svg">
<path d="M33.3333 10.0645V24.3226V25.1613V49.4839C33.3333 50.9097 32.25 52 30.8333 52C29.4167 52 28.3333 50.9097 28.3333 49.4839V33.8839C26.8333 34.7226 25.1667 35.2258 23.3333 35.2258H10C4.5 35.2258 0 30.6968 0 25.1613V10.0645C0 4.52903 4.5 0 10 0H23.3333C28.8333 0 33.3333 4.52903 33.3333 10.0645ZM65 0H51.6667C46.1667 0 41.6667 4.52903 41.6667 10.0645V25.1613C41.6667 30.6968 46.1667 35.2258 51.6667 35.2258H65C66.8333 35.2258 68.5 34.7226 70 33.8839V49.4839C70 50.9097 71.0833 52 72.5 52C73.9167 52 75 50.9097 75 49.4839V25.1613V24.3226V10.0645C75 4.52903 70.5 0 65 0Z" fill="#2B579A" fill-opacity="0.28"/>
</svg>
