<svg width="46" height="56" viewBox="0 0 46 56" fill="none" xmlns="http://www.w3.org/2000/svg">
<path d="M34.0835 35.0993C33.8224 34.7057 33.5394 34.3329 33.2347 33.96C32.7994 33.38 32.2771 32.8207 31.5806 32.1579C30.9494 31.5571 30.2965 31.0186 29.6 30.5421C26.4224 28.2221 22.5482 27 18.5 27C14.4082 27 10.5341 28.2636 7.37824 30.5421C6.07235 31.4743 4.89706 32.5929 3.87412 33.8564C3.54765 34.25 3.24294 34.6643 2.93824 35.0993C1.04471 37.8957 0 41.2307 0 44.6071V45.6429V51.8571V52.8929C0 54.6121 1.45824 56 3.26471 56H33.7353C35.5418 56 37 54.6121 37 52.8929V51.8571V44.6071C37 41.1893 35.9553 37.8543 34.0835 35.0993Z" fill="#2B579A"/>
<path d="M31 20.5C31 27.3889 25.3889 33 18.5 33C11.6111 33 6 27.3889 6 20.5C6 13.5833 11.6111 8 18.5 8C25.3889 8 31 13.5833 31 20.5Z" fill="white"/>
<path d="M29 20.5C29 26.2867 24.2867 31 18.5 31C12.7133 31 8 26.2867 8 20.5C8 14.69 12.7133 10 18.5 10C24.2867 10 29 14.69 29 20.5Z" fill="#2B579A"/>
<rect x="26" width="20" height="11" rx="2" fill="#2B579A"/>
<rect x="35" y="7" width="1.5" height="6" rx="0.75" transform="rotate(90 35 7)" fill="white"/>
<rect x="43" y="3" width="1.5" height="14" rx="0.75" transform="rotate(90 43 3)" fill="white"/>
</svg>
