<svg width="19" height="19" viewBox="0 0 19 19" fill="none" xmlns="http://www.w3.org/2000/svg">
<path d="M9.5 0C4.25493 0 0 4.25493 0 9.5C0 14.7451 4.25493 19 9.5 19C14.7451 19 19 14.7451 19 9.5C19 4.25493 14.7451 0 9.5 0ZM12.7915 12.7915C12.6577 12.9254 12.4972 12.9789 12.3099 12.9789C12.1225 12.9789 11.962 12.9254 11.8282 12.7915L9.01831 9.98169C8.99155 9.95493 8.96479 9.92817 8.93803 9.87465C8.93803 9.84789 8.91127 9.84789 8.91127 9.82113C8.91127 9.79437 8.88451 9.76761 8.88451 9.76761C8.88451 9.74084 8.85775 9.71408 8.85775 9.68732C8.85775 9.66056 8.85775 9.66056 8.83099 9.6338C8.83099 9.58028 8.83099 9.55352 8.83099 9.5V3.37183C8.83099 2.99718 9.12535 2.70282 9.5 2.70282C9.87465 2.70282 10.169 2.99718 10.169 3.37183V9.23239L12.7915 11.8549C13.0592 12.0958 13.0592 12.5239 12.7915 12.7915Z" fill="#2B579A"/>
</svg>
