<svg width="60" height="81" viewBox="0 0 60 81" fill="none" xmlns="http://www.w3.org/2000/svg">
<path d="M5.67571 15.3931C6.01642 14.9121 6.6778 14.7919 7.16882 15.1326L12.4198 18.8103C12.9008 19.151 13.021 19.8123 12.6803 20.3034C12.3396 20.7844 11.6782 20.9046 11.1872 20.5639L5.93625 16.8862C5.45525 16.5455 5.335 15.8741 5.67571 15.3931Z" fill="#2B579A"/>
<path d="M0.495082 41.2871L5.90637 37.84C6.40742 37.5193 7.0688 37.6696 7.37944 38.1706C7.70011 38.6717 7.5498 39.3331 7.04875 39.6437L1.63747 43.0909C1.13642 43.4116 0.47504 43.2613 0.164392 42.7602C-0.146256 42.2692 -0.00596367 41.6078 0.495082 41.2871Z" fill="#2B579A"/>
<path d="M28.9337 8.3885C28.8034 8.95969 28.2322 9.33047 27.661 9.2002C27.0898 9.06992 26.7191 8.49873 26.8493 7.92754L28.2322 1.66447C28.3625 1.09328 28.9337 0.722509 29.5049 0.852781C30.0761 0.983053 30.4469 1.55424 30.3166 2.12544L28.9337 8.3885Z" fill="#2B579A"/>
<path d="M1.20642 29.5426C1.10621 28.9614 1.487 28.4103 2.06822 28.3L8.38139 27.1877C8.9626 27.0875 9.51375 27.4683 9.62398 28.0495C9.72419 28.6307 9.33337 29.1819 8.76218 29.2921L2.44901 30.4044C1.8678 30.5147 1.31665 30.1239 1.20642 29.5426Z" fill="#2B579A"/>
<path d="M18.9236 14.7818C18.3424 14.8821 17.7913 14.5013 17.681 13.92L16.5687 7.60688C16.4685 7.02567 16.8493 6.47452 17.4305 6.36429C18.0117 6.26408 18.5629 6.64487 18.6731 7.22608L19.7854 13.5393C19.8957 14.1205 19.5049 14.6716 18.9236 14.7818Z" fill="#2B579A"/>
<path d="M20.3072 21.7464L30.1076 28.6107C29.6767 29.2721 29.4362 30.0537 29.4362 30.8854V32.7193C28.8249 32.1982 28.0633 31.8475 27.2216 31.7372C27.0412 31.7172 26.8709 31.7072 26.6905 31.7072C25.8688 31.7072 25.1072 31.9376 24.4558 32.3385L16.6495 26.8771C15.2366 25.895 14.8859 23.961 15.8378 22.538C16.8099 21.065 18.8642 20.7343 20.3072 21.7464Z" fill="#2B579A"/>
<path d="M53.094 56.8496C54.2564 54.8354 53.565 52.25 51.5508 51.0775C50.9094 50.7068 50.1779 50.5164 49.4464 50.5164C47.9332 50.5164 46.5303 51.3281 45.7787 52.6308L44.7867 54.3444V35.3648C44.7867 32.9998 42.8927 31.0758 40.5679 31.0758C40.5378 31.0758 40.5077 31.0758 40.4777 31.0758C39.4856 31.0959 38.5737 31.4666 37.8622 32.0679V30.9455C37.8622 28.5806 35.9683 26.6566 33.6434 26.6566C33.6133 26.6566 33.5833 26.6566 33.5632 26.6566C32.3407 26.6766 31.2384 27.2378 30.4768 28.1096L24.2238 23.7305C22.8108 22.7484 22.4601 20.8144 23.4121 19.3914C24.3941 17.9184 26.4384 17.5877 27.8914 18.5998L46.2998 31.4967C46.41 31.5769 46.5503 31.4566 46.4902 31.3364L44.1854 26.376C43.4539 24.8027 44.1353 22.9188 45.7186 22.1772C47.2919 21.4457 49.1658 22.1271 49.9073 23.7004C50.7792 25.5844 51.651 27.4683 52.5228 29.3422C54.3967 33.3906 56.2706 37.4291 58.1245 41.4875C59.1366 43.7022 60.0385 45.7665 59.9984 48.2717C59.9483 50.9673 59.0264 53.7231 57.5032 55.8976C55.7696 58.3728 53.3646 60.0863 50.699 60.9882L50.9495 60.5573C51.661 59.3247 52.3825 58.0822 53.094 56.8496Z" fill="#2B579A"/>
<path d="M20.4971 30.3343L23.9042 32.7193C22.9923 33.4909 22.4111 34.6433 22.4111 35.926V38.9523C21.8399 38.4913 21.1485 38.1707 20.3869 38.0604L16.7493 35.5151C15.2161 34.4429 14.9556 32.2082 16.2483 30.7752C17.3405 29.5727 19.1744 29.4024 20.4971 30.3343Z" fill="#2B579A"/>
<path d="M20.1571 39.1026C21.7704 39.303 22.9529 40.7059 22.9529 42.3293V51.0675C22.9529 51.278 23.1934 51.4082 23.3638 51.288H23.3738C23.4439 51.2379 23.484 51.1577 23.484 51.0675V35.9259C23.484 34.052 25.1675 32.5589 27.0815 32.7994C28.6949 32.9998 29.8774 34.4028 29.8774 36.0262V49.1736C29.8774 49.3439 30.0176 49.4842 30.188 49.4842C30.3584 49.4842 30.4987 49.3439 30.4987 49.1736V30.8854C30.4987 29.1618 31.8715 27.7689 33.5851 27.7389C35.3588 27.6988 36.8018 29.1819 36.8018 30.9556V51.0174C36.8018 51.1277 36.8619 51.2379 36.9621 51.288H36.9722C37.1726 51.3982 37.4231 51.2479 37.4231 51.0174V35.2946C37.4231 33.571 38.796 32.1781 40.5095 32.1481C42.2832 32.108 43.7263 33.5911 43.7263 35.3648V57.8417C43.7263 57.9719 43.8966 58.022 43.9668 57.9018L46.7125 53.1619C47.5843 51.6588 49.5183 51.1377 51.0215 52.0095C52.5246 52.8813 53.0457 54.8053 52.1739 56.3185C51.1317 58.1122 50.0895 59.906 49.0474 61.6997C46.8127 65.5578 44.568 69.4058 42.3133 73.2538C41.0807 75.3582 39.9083 77.2822 37.834 78.6751C35.5993 80.1783 32.8035 81 30.1479 81C22.6623 81 16.5596 74.9273 16.5596 67.4417V42.2291C16.5596 40.3552 18.2431 38.8621 20.1571 39.1026Z" fill="#2B579A"/>
</svg>
