<svg width="30" height="31" viewBox="0 0 30 31" fill="none" xmlns="http://www.w3.org/2000/svg">
<path d="M7.58677 23.1387C7.07473 22.6267 7.07473 21.7807 7.58677 21.2686L20.5659 8.28945C21.078 7.77741 21.924 7.77741 22.436 8.28945C22.9481 8.80149 22.9481 9.64748 22.436 10.1595L9.45684 23.1387C8.92253 23.673 8.09881 23.6507 7.58677 23.1387Z" fill="white"/>
<path d="M20.5654 23.1609L7.56399 10.1595C7.05195 9.64746 7.05195 8.80148 7.56399 8.28944C8.07603 7.77739 8.92202 7.77739 9.43406 8.28944L22.4132 21.2686C22.9253 21.7807 22.9253 22.6266 22.4132 23.1387C21.9012 23.6507 21.0775 23.673 20.5654 23.1609Z" fill="white"/>
</svg>
