<svg width="36" height="36" viewBox="0 0 36 36" fill="none" xmlns="http://www.w3.org/2000/svg">
<path d="M7.94922 0.316895C7.9614 0.359535 8.48526 3.20421 9.10658 6.63974C9.7279 10.0753 10.2578 12.9321 10.2822 12.993C10.3127 13.06 10.7939 10.5626 11.4761 6.84075C12.1035 3.39913 12.6335 0.505728 12.6518 0.408266L12.6822 0.243799H10.3005C8.42434 0.243799 7.93094 0.262074 7.94922 0.316895Z" fill="#2B579A"/>
<path d="M22.1726 0.469189C22.136 0.597107 20.7107 5.6895 19.0173 11.787L15.9289 22.8733L10.3127 22.8915C5.00711 22.9037 4.69645 22.8976 4.66599 22.8002C4.64772 22.7392 3.61827 19.0296 2.37563 14.5585C1.13299 10.0875 0.0913706 6.35954 0.0609137 6.27427C0.0304569 6.18899 0.00609137 12.5667 0.00609137 21.058L0 36.0002H17.9086H35.8173V18.122V0.243809H29.0254H22.2396L22.1726 0.469189Z" fill="#2B579A"/>
</svg>
