<svg width="36" height="36" viewBox="0 0 36 36" fill="none" xmlns="http://www.w3.org/2000/svg">
<rect width="36" height="36"  fill="white"/>
<path d="M8 3.05176e-05C8.01287 0.0435043 8.56671 3.01835 9.22301 6.5211C9.87932 10.0238 10.4391 12.9366 10.4648 12.9987C10.497 13.067 11.0053 10.5207 11.726 6.72604C12.3887 3.21709 12.9485 0.267084 12.9678 0.167715L13 3.05176e-05H10.4841C8.5 0 8 3.05176e-05 8 3.05176e-05Z" fill="#2B579A"/>
<path d="M22.2857 0.227101C22.249 0.355891 20.8163 5.48298 19.1143 11.622L16.0102 22.7838L10.3653 22.8022C5.03265 22.8145 4.72041 22.8084 4.6898 22.7102C4.67143 22.6489 3.63673 18.914 2.38776 14.4124C1.13878 9.91092 0.0918367 6.15759 0.0612245 6.07173C0.0306122 5.98587 0.00612245 12.407 0.00612245 20.9562L0 36.0002H18H36V18.0002V0.00018438H29.1735H22.3531L22.2857 0.227101Z" fill="#2B579A"/>
</svg>
