<svg width="48" height="45" viewBox="0 0 48 45" fill="none" xmlns="http://www.w3.org/2000/svg">
<path d="M45.6932 34.672C46.3745 31.8127 43.6997 30.6817 43.6997 30.6817C45.5086 30.4708 46.667 29.9676 47.1049 28.2265C47.6197 26.1754 46.3843 24.6346 44.4284 23.7435C44.7255 23.713 47.7115 23.1969 47.9806 19.9617C48.2731 16.4254 45.1875 15.3942 43.9627 15.3942C39.216 15.3933 34.4687 15.3951 29.7219 15.3901C30.4048 13.8012 31.2384 9.59106 30.1892 3.78947C29.7747 1.49534 28.5078 -0.0301685 26.8935 0.000452669C25.5926 0.0246188 24.3505 1.09524 24.2201 2.43153C24.0784 3.89985 23.74 5.99121 23.4205 7.42166C22.3984 11.9932 16.9297 18.0282 13.4719 20.134V42.4668C15.8173 43.8828 18.361 44.3778 21.0773 44.3222C25.3695 44.2362 37.6303 44.3109 39.8513 44.2957C41.4242 44.2852 42.992 43.4835 43.7464 41.4574C44.7759 38.6898 42.1207 37.3052 42.1207 37.3052C42.1207 37.3052 45.0285 37.4581 45.6932 34.672ZM9.46172 16.5848H1.47422C0.66026 16.5848 0 17.2899 0 18.1601V43.4255C0 44.2949 0.66026 45 1.47422 45H9.46172C10.2764 45 10.9367 44.2949 10.9367 43.4255V18.1601C10.9366 17.2899 10.2764 16.5848 9.46172 16.5848Z" fill="#2B579A"/>
</svg>
