<svg width="56" height="40" viewBox="0 0 56 40" fill="none" xmlns="http://www.w3.org/2000/svg">
<path d="M0 32.8002C0 36.2585 2.81351 39.072 6.27175 39.072H44.4671C47.9253 39.072 50.7388 36.2585 50.7388 32.8002V31.4439H0V32.8002Z" fill="#2B579A"/>
<path d="M47.7722 6.29927H46.906C47.0029 5.437 46.9427 3.97324 46.9623 3.09525C46.9623 1.38906 45.5732 0 43.8657 0H6.87342C5.16723 0 3.77686 1.38906 3.77686 3.09656V4.94559C3.77686 13.6692 6.64409 21.9472 11.9147 28.7248H38.8219C40.3223 26.7945 41.6052 24.7319 42.706 22.5828H47.7709C58.54 22.2027 58.5518 6.68323 47.7722 6.29927ZM15.8237 21.5488C15.2183 21.9813 14.3652 21.8437 13.9275 21.2278C10.7523 16.7513 9.07364 11.4847 9.07364 5.99525C9.10247 4.21175 11.7627 4.20388 11.7941 5.99525C11.7941 10.9173 13.2985 15.6401 16.1461 19.6526C16.5798 20.2659 16.437 21.1151 15.8237 21.5488ZM47.7722 19.8623H43.9732C45.4068 16.425 46.3346 12.7833 46.7264 9.01974C54.6009 8.26624 55.6112 19.3656 47.7722 19.8623Z" fill="#2B579A"/>
</svg>
