<svg width="43" height="61" viewBox="0 0 43 61" fill="none" xmlns="http://www.w3.org/2000/svg">
<path d="M39.1315 9.34989C35.034 3.35307 28.604 0 21.4806 0C14.2941 0 7.80109 3.48203 3.76659 9.54334C-0.267907 15.6047 -1.08741 23.149 1.43415 29.7907C1.74934 30.629 2.19062 31.4672 2.69493 32.3055L19.1481 59.6459C19.6524 60.4841 20.535 61 21.4806 61C22.4262 61 23.3087 60.4841 23.813 59.6459L40.3293 32.112C40.8966 31.2093 41.2748 30.3066 41.6531 29.4683C44.1116 22.8266 43.166 15.2822 39.1315 9.34989ZM21.4806 29.9841C16.1853 29.9841 11.8986 25.5994 11.8986 20.1829C11.8986 14.7664 16.1853 10.3816 21.4806 10.3816C26.7759 10.3816 31.0625 14.7664 31.0625 20.1829C31.0625 25.5994 26.7759 29.9841 21.4806 29.9841Z" fill="#2B579A"/>
</svg>
