<svg width="63" height="60" viewBox="0 0 63 60" fill="none" xmlns="http://www.w3.org/2000/svg">
<path fill-rule="evenodd" clip-rule="evenodd" d="M53.1804 24.3161C53.3547 24.16 53.5839 24.0796 53.8175 24.0925C54.0511 24.1055 54.27 24.2107 54.4261 24.3851C54.5821 24.5595 54.6625 24.7888 54.6496 25.0225C54.6366 25.2562 54.5314 25.4752 54.3571 25.6313C52.0772 27.6782 49.1049 28.7815 46.0423 28.7177C42.9797 28.654 40.0558 27.428 37.863 25.288C35.6702 23.1481 34.3723 20.2542 34.2324 17.1927C34.0925 14.1312 35.121 11.131 37.1095 8.79979C39.0981 6.4686 41.8979 4.98077 44.9419 4.63771C47.9859 4.29465 51.0465 5.12201 53.5035 6.95219C55.9606 8.78236 57.6305 11.4785 58.1748 14.4944C58.7192 17.5103 58.0974 20.6205 56.4354 23.1949C56.3727 23.2922 56.2915 23.3761 56.1964 23.442C56.1012 23.5078 55.9941 23.5543 55.881 23.5787C55.7679 23.6031 55.6512 23.605 55.5374 23.5843C55.4236 23.5636 55.315 23.5206 55.2178 23.4579C55.1205 23.3952 55.0366 23.3139 54.9708 23.2187C54.905 23.1236 54.8585 23.0164 54.8341 22.9032C54.8097 22.7901 54.8078 22.6733 54.8286 22.5594C54.8493 22.4456 54.8922 22.3369 54.9549 22.2397C56.374 20.0458 56.9065 17.3943 56.4446 14.8223C55.9826 12.2503 54.5608 9.95018 52.4672 8.38778C50.3735 6.82539 47.7645 6.1176 45.1687 6.40778C42.5729 6.69797 40.1844 7.96444 38.4871 9.95063C36.7897 11.9368 35.9104 14.4942 36.0273 17.1048C36.1442 19.7153 37.2486 22.1838 39.1166 24.0102C40.9847 25.8366 43.4768 26.8843 46.0882 26.9411C48.6995 26.9979 51.2348 26.0596 53.1804 24.3161ZM49.8631 33.6543L54.2836 43.1788L56.8799 39.4825C56.9749 39.347 57.1061 39.2409 57.2584 39.1764C57.4108 39.1119 57.5782 39.0915 57.7416 39.1176L62.1796 39.5133L57.9852 30.4755C57.7311 30.5498 57.47 30.6079 57.2089 30.6653C56.7949 30.7288 56.3942 30.8604 56.0231 31.0547C55.7053 31.3262 55.434 31.6479 55.2202 32.0071C54.8254 32.7178 54.2298 33.2961 53.508 33.6697C52.7389 33.9258 51.912 33.9525 51.128 33.7468C50.7147 33.6553 50.2903 33.6241 49.868 33.6543H49.8631ZM48.1971 32.4589C48.224 32.4413 48.2518 32.4251 48.2804 32.4105C48.6493 32.1891 49.051 32.0274 49.4704 31.9315C50.1127 31.8357 50.7673 31.8594 51.401 32.0015C51.8647 32.1263 52.3512 32.1402 52.8213 32.0422C53.2137 31.7752 53.5373 31.4191 53.7656 31.0029C54.0648 30.432 54.5014 29.9446 55.0359 29.5846C55.5704 29.2247 56.1861 29.0035 56.8274 28.9411C57.2889 28.8877 57.731 28.7246 58.1168 28.4656C58.3757 28.0796 58.5387 27.6373 58.5921 27.1756C58.6914 26.5416 58.9101 25.9322 59.2368 25.3799C59.6248 24.8719 60.1053 24.4418 60.6529 24.1123C61.0691 23.8842 61.4251 23.5604 61.6917 23.1676C61.7894 22.6973 61.7755 22.2106 61.6511 21.7466C61.509 21.1126 61.4853 20.4578 61.5811 19.8151C61.7434 19.194 62.0156 18.6069 62.3847 18.0818C62.7001 17.6695 62.9112 17.187 63 16.6755C62.9116 16.1636 62.7007 15.6807 62.3854 15.2679C62.0165 14.7426 61.7444 14.1556 61.5818 13.5346C61.486 12.8919 61.5097 12.2371 61.6518 11.6031C61.7762 11.1391 61.7901 10.6524 61.6924 10.1821C61.4256 9.78948 61.0696 9.46572 60.6536 9.23734C60.106 8.90785 59.6255 8.47777 59.2375 7.96975C58.9109 7.41746 58.6921 6.8081 58.5928 6.1741C58.5394 5.71235 58.3764 5.27005 58.1175 4.8841C57.7317 4.62504 57.2896 4.462 56.8281 4.40857C56.1943 4.30957 55.5852 4.09067 55.0333 3.76357C54.5255 3.37539 54.0956 2.8947 53.7663 2.3468C53.5382 1.93067 53.2149 1.57452 52.8227 1.30751C52.3526 1.20978 51.8661 1.2237 51.4024 1.34813C50.7687 1.49059 50.1141 1.51434 49.4718 1.41817C48.8513 1.25593 48.2647 0.983886 47.74 0.614889C47.3274 0.29942 46.8447 0.08846 46.333 0C45.8215 0.0885679 45.3391 0.299523 44.9267 0.614889C44.4018 0.984208 43.815 1.2565 43.1942 1.41887C42.5519 1.51506 41.8973 1.49131 41.2636 1.34883C40.7999 1.2244 40.3134 1.21048 39.8433 1.30821C39.4507 1.57493 39.1271 1.93114 38.899 2.3475C38.5697 2.8954 38.1398 3.3761 37.632 3.76427C37.0801 4.09137 36.471 4.31027 35.8372 4.40927C35.3757 4.4627 34.9336 4.62574 34.5478 4.8848C34.2889 5.27075 34.1259 5.71305 34.0725 6.1748C33.9733 6.80893 33.7543 7.41834 33.4271 7.97045C33.0395 8.47861 32.5593 8.90872 32.0117 9.23804C31.5957 9.46574 31.2394 9.78876 30.9722 10.1807C30.8745 10.651 30.8884 11.1377 31.0128 11.6017C31.1549 12.2357 31.1786 12.8905 31.0828 13.5332C30.9202 14.1542 30.6481 14.7412 30.2792 15.2665C29.9639 15.6793 29.753 16.1622 29.6646 16.6741C29.7527 17.1859 29.9636 17.6687 30.2792 18.0811C30.6481 18.6064 30.9202 19.1934 31.0828 19.8144C31.1786 20.4573 31.1548 21.1124 31.0128 21.7466C30.8884 22.2104 30.8745 22.6968 30.9722 23.1669C31.2388 23.5597 31.5948 23.8835 32.011 24.1116C32.5586 24.441 33.0388 24.8711 33.4264 25.3792C33.7536 25.9313 33.9726 26.5407 34.0718 27.1749C34.1252 27.6366 34.2882 28.0789 34.5471 28.4649C34.7577 28.6351 35.0062 28.7518 35.2716 28.8052C35.3024 28.8122 35.3325 28.8199 35.3626 28.8298C35.5152 28.869 35.6762 28.9047 35.8365 28.9404C36.4703 29.0396 37.0795 29.2588 37.6313 29.5861C38.1392 29.9739 38.5691 30.4543 38.8983 31.0022C39.1264 31.4185 39.45 31.7747 39.8426 32.0415C40.3127 32.1392 40.7991 32.1253 41.2629 32.0008C41.8966 31.8587 42.5511 31.835 43.1935 31.9308C43.8141 32.0938 44.4008 32.366 44.926 32.7348L45.1878 32.8952C45.2168 32.91 45.2449 32.9266 45.2718 32.9449C45.5866 33.1651 45.9509 33.3041 46.3323 33.3497C46.8441 33.2616 47.3269 33.0506 47.7393 32.7348C47.8912 32.6409 48.0431 32.5478 48.1971 32.4589ZM47.0771 15.4374L46.3295 13.8462L45.6141 15.3708C45.5576 15.5233 45.4602 15.6574 45.3327 15.7583C45.2052 15.8592 45.0524 15.9231 44.891 15.943L43.1529 16.1615L44.4073 17.3387C44.5243 17.4403 44.6125 17.5708 44.6631 17.7172C44.7137 17.8636 44.725 18.0207 44.6957 18.1728L44.366 19.8971L45.8955 19.0567C46.0265 18.9827 46.1742 18.9434 46.3247 18.9425C46.4751 18.9417 46.6233 18.9793 46.7551 19.0518L48.2951 19.8992L47.9647 18.1749C47.9368 18.0288 47.9462 17.878 47.9921 17.7365C48.038 17.5949 48.1189 17.4673 48.2272 17.3654L49.5075 16.1643L47.7694 15.9458V15.9423C47.6209 15.9243 47.4794 15.8688 47.3582 15.7809C47.2371 15.6931 47.1404 15.5758 47.0771 15.4402V15.4374ZM47.1289 11.3972C47.0579 11.2451 46.945 11.1165 46.8034 11.0263C46.6619 10.9362 46.4976 10.8883 46.3298 10.8883C46.1621 10.8883 45.9978 10.9362 45.8563 11.0263C45.7147 11.1165 45.6018 11.2451 45.5308 11.3972L44.1959 14.2426L41.0711 14.6355C40.9046 14.6559 40.7473 14.7234 40.6177 14.8299C40.4881 14.9365 40.3915 15.0778 40.3392 15.2373C40.2869 15.3968 40.2811 15.5679 40.3225 15.7306C40.3638 15.8932 40.4506 16.0408 40.5727 16.1559L42.8708 18.3129L42.2786 21.4084C42.247 21.5732 42.263 21.7437 42.3246 21.8998C42.3862 22.0559 42.491 22.1912 42.6266 22.29C42.7623 22.3888 42.9232 22.4469 43.0907 22.4576C43.2581 22.4683 43.4251 22.4311 43.5722 22.3503L46.3323 20.8299L49.0931 22.3503C49.2401 22.431 49.4071 22.4682 49.5744 22.4575C49.7418 22.4469 49.9026 22.3888 50.0383 22.2901C50.1739 22.1914 50.2786 22.0562 50.3403 21.9002C50.402 21.7442 50.4181 21.5739 50.3867 21.4091L49.7945 18.3129L52.0513 16.2035C52.1846 16.0931 52.2826 15.9461 52.3333 15.7806C52.3839 15.615 52.385 15.4383 52.3364 15.2722C52.2878 15.106 52.1916 14.9578 52.0597 14.8458C51.9278 14.7337 51.7659 14.6628 51.5942 14.6418L48.4694 14.2426L47.1317 11.3944L47.1289 11.3972ZM33.327 35.5746L35.5908 30.6954C35.9585 30.7553 36.3135 30.8767 36.6408 31.0547C36.9584 31.3264 37.2296 31.6481 37.4437 32.0071C37.8385 32.7178 38.4341 33.2961 39.1559 33.6697C39.925 33.9258 40.7519 33.9525 41.5359 33.7468C41.9624 33.6494 42.4017 33.6208 42.8372 33.662C43.1221 33.7397 43.3931 33.8612 43.6408 34.022L41.8656 37.8472C41.4344 36.6057 40.4112 35.9138 38.7961 35.7714C38.7579 35.769 38.7195 35.769 38.6813 35.7714L33.327 35.5746ZM6.7361 39.252H0.9961C0.732507 39.2528 0.47989 39.3577 0.293305 39.544C0.106719 39.7303 0.001292 39.9828 0 40.2465V59.0048C0.00110548 59.2684 0.106259 59.5209 0.292562 59.7073C0.478865 59.8937 0.73123 59.9989 0.9947 60H6.7347C6.99817 59.9989 7.25053 59.8937 7.43684 59.7073C7.62314 59.5209 7.72829 59.2684 7.7294 59.0048V40.2465C7.72811 39.983 7.62288 39.7307 7.43659 39.5445C7.25031 39.3583 6.99805 39.2532 6.7347 39.252H6.7361ZM9.5018 42.447V56.4024C10.7351 56.0056 12.0702 56.0686 13.2608 56.5796C13.4616 56.6442 13.6327 56.7786 13.7431 56.9585C14.0791 57.5523 14.5609 58.0506 15.1431 58.4061C15.725 58.7191 16.3799 58.8711 17.0401 58.8466L33.1618 58.9866C33.5038 58.9903 33.8451 58.9543 34.1789 58.8795C34.9902 58.7043 35.721 58.2661 36.2579 57.6329C36.7791 57.0064 37.0656 56.2175 37.0678 55.4023C37.0697 55.0844 37.0344 54.7673 36.9628 54.4576C36.933 54.3252 36.9341 54.1877 36.966 54.0558C36.998 53.9239 37.0599 53.8011 37.1469 53.697C37.8773 52.87 38.4513 51.917 38.8409 50.8845C39.121 50.1274 39.1767 49.3054 39.0012 48.5174C38.9741 48.4042 38.9697 48.2868 38.9882 48.1719C39.0067 48.057 39.0478 47.9469 39.109 47.8479C39.6671 46.9265 40.0348 45.9025 40.1905 44.8365C40.2355 44.5483 40.2162 44.2537 40.1339 43.9739C40.0516 43.694 39.9083 43.4359 39.7145 43.218C39.5891 43.0873 39.5068 42.9213 39.4787 42.7423C39.4507 42.5633 39.4782 42.38 39.5577 42.2172C40.2283 40.5617 40.4551 39.338 40.2381 38.5461C40.0757 37.9513 39.5449 37.6147 38.6456 37.5362H38.6204L31.9809 37.296C31.9482 37.2966 31.9155 37.2955 31.8829 37.2925L27.4442 37.1315C27.2109 37.123 26.9903 37.0226 26.8308 36.852C26.6713 36.6814 26.5858 36.4545 26.593 36.221C26.5944 36.1806 26.5986 36.1404 26.6056 36.1006C27.2025 32.6923 27.2979 29.9984 26.8919 28.0188C26.5228 26.2189 25.7369 25.044 24.5343 24.494C24.2195 24.3449 23.8726 24.2765 23.5248 24.2949C23.177 24.3133 22.8392 24.418 22.5419 24.5995C22.2446 24.781 21.997 25.0337 21.8216 25.3347C21.6462 25.6357 21.5483 25.9757 21.5369 26.324C21.5028 29.2447 20.9132 32.1322 19.7995 34.8323C18.4974 37.6836 16.3201 40.0449 13.5842 41.5729C13.4812 41.634 13.3669 41.6735 13.2482 41.6892L9.5018 42.447Z" fill="#2B579A"/>
</svg>
