<svg width="93" height="17" viewBox="0 0 93 17" fill="none" xmlns="http://www.w3.org/2000/svg">
<path d="M8.11958 1.17082C8.23932 0.802296 8.76068 0.802296 8.88042 1.17082L10.3186 5.59696C10.3721 5.76177 10.5257 5.87336 10.699 5.87336L15.3529 5.87336C15.7404 5.87336 15.9015 6.3692 15.588 6.59696L11.8229 9.33247C11.6827 9.43433 11.6241 9.61487 11.6776 9.77968L13.1158 14.2058C13.2355 14.5743 12.8137 14.8808 12.5002 14.653L8.73511 11.9175C8.59492 11.8157 8.40508 11.8157 8.26489 11.9175L4.49978 14.653C4.1863 14.8808 3.76451 14.5743 3.88425 14.2058L5.32239 9.77968C5.37594 9.61487 5.31728 9.43433 5.17708 9.33247L1.41198 6.59696C1.09849 6.3692 1.2596 5.87336 1.64709 5.87336L6.30101 5.87336C6.4743 5.87336 6.62789 5.76177 6.68144 5.59696L8.11958 1.17082Z" fill="#FFDC27"/>
<path d="M27.1196 1.17082C27.2393 0.802296 27.7607 0.802296 27.8804 1.17082L29.3186 5.59696C29.3721 5.76177 29.5257 5.87336 29.699 5.87336L34.3529 5.87336C34.7404 5.87336 34.9015 6.3692 34.588 6.59696L30.8229 9.33247C30.6827 9.43433 30.6241 9.61487 30.6776 9.77968L32.1158 14.2058C32.2355 14.5743 31.8137 14.8808 31.5002 14.653L27.7351 11.9175C27.5949 11.8157 27.4051 11.8157 27.2649 11.9175L23.4998 14.653C23.1863 14.8808 22.7645 14.5743 22.8842 14.2058L24.3224 9.77968C24.3759 9.61487 24.3173 9.43433 24.1771 9.33247L20.412 6.59696C20.0985 6.3692 20.2596 5.87336 20.6471 5.87336L25.301 5.87336C25.4743 5.87336 25.6279 5.76177 25.6814 5.59696L27.1196 1.17082Z" fill="#FFDC27"/>
<path d="M46.1196 1.17082C46.2393 0.802296 46.7607 0.802296 46.8804 1.17082L48.3186 5.59696C48.3721 5.76177 48.5257 5.87336 48.699 5.87336L53.3529 5.87336C53.7404 5.87336 53.9015 6.3692 53.588 6.59696L49.8229 9.33247C49.6827 9.43433 49.6241 9.61487 49.6776 9.77968L51.1158 14.2058C51.2355 14.5743 50.8137 14.8808 50.5002 14.653L46.7351 11.9175C46.5949 11.8157 46.4051 11.8157 46.2649 11.9175L42.4998 14.653C42.1863 14.8808 41.7645 14.5743 41.8842 14.2058L43.3224 9.77968C43.3759 9.61487 43.3173 9.43433 43.1771 9.33247L39.412 6.59696C39.0985 6.3692 39.2596 5.87336 39.6471 5.87336L44.301 5.87336C44.4743 5.87336 44.6279 5.76177 44.6814 5.59696L46.1196 1.17082Z" fill="#FFDC27"/>
<path d="M65.1196 1.17082C65.2393 0.802296 65.7607 0.802296 65.8804 1.17082L67.3186 5.59696C67.3721 5.76177 67.5257 5.87336 67.699 5.87336L72.3529 5.87336C72.7404 5.87336 72.9015 6.3692 72.588 6.59696L68.8229 9.33247C68.6827 9.43433 68.6241 9.61487 68.6776 9.77968L70.1158 14.2058C70.2355 14.5743 69.8137 14.8808 69.5002 14.653L65.7351 11.9175C65.5949 11.8157 65.4051 11.8157 65.2649 11.9175L61.4998 14.653C61.1863 14.8808 60.7645 14.5743 60.8842 14.2058L62.3224 9.77968C62.3759 9.61487 62.3173 9.43433 62.1771 9.33247L58.412 6.59696C58.0985 6.3692 58.2596 5.87336 58.6471 5.87336L63.301 5.87336C63.4743 5.87336 63.6279 5.76177 63.6814 5.59696L65.1196 1.17082Z" fill="#FFDC27"/>
<path d="M84.1196 1.17082C84.2393 0.802296 84.7607 0.802296 84.8804 1.17082L86.3186 5.59696C86.3721 5.76177 86.5257 5.87336 86.699 5.87336L91.3529 5.87336C91.7404 5.87336 91.9015 6.3692 91.588 6.59696L87.8229 9.33247C87.6827 9.43433 87.6241 9.61487 87.6776 9.77968L89.1158 14.2058C89.2355 14.5743 88.8137 14.8808 88.5002 14.653L84.7351 11.9175C84.5949 11.8157 84.4051 11.8157 84.2649 11.9175L80.4998 14.653C80.1863 14.8808 79.7645 14.5743 79.8842 14.2058L81.3224 9.77968C81.3759 9.61487 81.3173 9.43433 81.1771 9.33247L77.412 6.59696C77.0985 6.3692 77.2596 5.87336 77.6471 5.87336L82.301 5.87336C82.4743 5.87336 82.6279 5.76177 82.6814 5.59696L84.1196 1.17082Z" fill="#FFDC27"/>
</svg>
